<svg xmlns="http://www.w3.org/2000/svg" xmlns:xlink="http://www.w3.org/1999/xlink" viewBox="0 0 71 81" fill="#fff" fill-rule="evenodd" stroke="#000" stroke-linecap="round" stroke-linejoin="round"><use xlink:href="#A" x=".5" y=".5"/><symbol id="A" overflow="visible"><g stroke="none"><path d="M66.957 9.351l-6.594-6.753L57.319 0h0H8.116v71.169H70V12.468h0z" fill="#0078d7"/><path d="M57.319 2.597H11.16v65.974h55.797V12.467h-3.551-6.087z" fill="#f6f6f6"/><path d="M58.333 18.182l-6.594-6.753-3.044-2.597h0H0V80h61.377V21.818v-.52z" fill="#0078d7"/><path d="M48.695 11.429H2.536v65.974h55.797V21.819h-3.551-6.087z"/><path d="M49.203 47.792c-2.536 0-3.551 1.559-3.551 3.636v4.675c0 2.597-.507 4.675-1.522 5.714s-3.551 1.558-6.594 1.558V59.74c1.522 0 2.029-.52 2.536-.52.507-.519.507-1.558.507-2.597v-4.675c0-3.636 1.522-5.714 3.551-6.234h0c-2.029-.52-3.551-2.597-3.551-6.234v-4.675c0-2.597-1.522-3.636-3.551-3.636v-4.156h1.522c2.029 0 3.551.52 4.565 1.558 1.522 1.559 1.522 3.636 1.522 6.234v4.675c0 2.597 1.522 3.636 3.551 3.636l1.015 4.675h0zM22.827 63.377c-2.536 0-5.58-.519-6.594-1.558-1.522-1.558-1.522-2.597-1.522-5.714v-4.675c0-2.597-1.014-4.156-3.043-4.156v-3.636c2.029 0 2.536-1.559 2.536-4.156v-4.156c0-2.597.507-4.675 2.029-5.714 1.522-1.558 3.551-2.078 6.594-2.078v4.156c-2.029-.52-3.551 1.039-3.551 3.636v4.156c0 3.636-1.522 5.714-3.551 6.234h0c2.029.52 3.551 2.597 3.551 6.234v4.156c0 1.559.507 2.597.507 2.597.507 1.558 1.522 1.558 2.536 1.558v3.636h.507z" fill="#0078d7"/></g></symbol></svg>