<?xml version="1.0" encoding="UTF-8" standalone="no"?>
<!-- Created with Inkscape (http://www.inkscape.org/) -->

<svg
   width="210mm"
   height="297mm"
   viewBox="0 0 210 297"
   version="1.1"
   id="svg3785"
   inkscape:version="1.1.1 (3bf5ae0d25, 2021-09-20)"
   sodipodi:docname="mysql2.svg"
   xmlns:inkscape="http://www.inkscape.org/namespaces/inkscape"
   xmlns:sodipodi="http://sodipodi.sourceforge.net/DTD/sodipodi-0.dtd"
   xmlns:xlink="http://www.w3.org/1999/xlink"
   xmlns="http://www.w3.org/2000/svg"
   xmlns:svg="http://www.w3.org/2000/svg">
  <sodipodi:namedview
     id="namedview3787"
     pagecolor="#ffffff"
     bordercolor="#666666"
     borderopacity="1.0"
     inkscape:pageshadow="2"
     inkscape:pageopacity="0.0"
     inkscape:pagecheckerboard="0"
     inkscape:document-units="mm"
     showgrid="false"
     inkscape:zoom="0.64052329"
     inkscape:cx="397.33138"
     inkscape:cy="561.25984"
     inkscape:window-width="1920"
     inkscape:window-height="1137"
     inkscape:window-x="3832"
     inkscape:window-y="-8"
     inkscape:window-maximized="1"
     inkscape:current-layer="layer1" />
  <defs
     id="defs3782">
    <radialGradient
       cx="23.857143"
       cy="40"
       fx="23.857143"
       fy="40"
       gradientTransform="matrix(2.9613616,0,0,1.6100528,37.693217,116.76145)"
       gradientUnits="userSpaceOnUse"
       id="radialGradient24310"
       inkscape:collect="always"
       r="17.142857"
       xlink:href="#linearGradient2265-2" />
    <linearGradient
       id="linearGradient2265-2"
       inkscape:collect="always">
      <stop
         id="stop2267-4"
         offset="0"
         style="stop-color:#000000;stop-opacity:1;" />
      <stop
         id="stop2269-4"
         offset="1"
         style="stop-color:#000000;stop-opacity:0;" />
    </linearGradient>
    <linearGradient
       gradientTransform="matrix(6.4548594,0,0,6.7220041,-47.342054,-32.818749)"
       gradientUnits="userSpaceOnUse"
       id="linearGradient24387"
       inkscape:collect="always"
       x1="9.3030529"
       x2="38.826412"
       xlink:href="#linearGradient9910-0"
       y1="26.71875"
       y2="26.71875" />
    <linearGradient
       id="linearGradient9910-0">
      <stop
         id="stop9912-7"
         offset="0"
         style="stop-color:#729fcf;stop-opacity:1;" />
      <stop
         id="stop9918-0"
         offset="0.31578946"
         style="stop-color:#babdb6;stop-opacity:1;" />
      <stop
         id="stop9914-5"
         offset="1"
         style="stop-color:#3465a4;stop-opacity:1;" />
    </linearGradient>
    <linearGradient
       gradientTransform="matrix(0.27517516,0,0,0.35273328,-1.5593224,-18.03296)"
       gradientUnits="userSpaceOnUse"
       id="linearGradient24389"
       inkscape:collect="always"
       x1="49.136963"
       x2="747.09595"
       xlink:href="#linearGradient8109-3"
       y1="467.25879"
       y2="467.25879" />
    <linearGradient
       gradientTransform="scale(0.9013373,1.1094625)"
       gradientUnits="userSpaceOnUse"
       id="linearGradient8109-3"
       x1="49.136963"
       x2="747.09595"
       y1="467.25879"
       y2="467.25879">
      <stop
         id="stop8111"
         offset="0"
         style="stop-color:#729fcf;stop-opacity:1;" />
      <stop
         id="stop8113"
         offset="1"
         style="stop-color:#204a87;stop-opacity:1;" />
    </linearGradient>
    <linearGradient
       gradientTransform="matrix(6.4548594,0,0,6.7220041,-47.342054,-32.818749)"
       gradientUnits="userSpaceOnUse"
       id="linearGradient24384"
       inkscape:collect="always"
       x1="17.160095"
       x2="37.969398"
       xlink:href="#linearGradient2682-7"
       y1="14.004482"
       y2="56.575912" />
    <linearGradient
       id="linearGradient2682-7">
      <stop
         id="stop2684-7"
         offset="0"
         style="stop-color:#3977c3;stop-opacity:1;" />
      <stop
         id="stop2686-0"
         offset="1"
         style="stop-color:#89aedc;stop-opacity:0;" />
    </linearGradient>
    <linearGradient
       gradientUnits="userSpaceOnUse"
       id="linearGradient24321"
       inkscape:collect="always"
       x1="24"
       x2="24"
       xlink:href="#linearGradient6932-4"
       y1="16.525082"
       y2="13.284962"
       gradientTransform="matrix(2.9013343,0,0,2.670098,38.311307,80.892362)" />
    <linearGradient
       id="linearGradient6932-4">
      <stop
         id="stop6934-8"
         offset="0.0000000"
         style="stop-color:#ffffff;stop-opacity:1.0000000;" />
      <stop
         id="stop6936-2"
         offset="1"
         style="stop-color:#729fcf;stop-opacity:1;" />
    </linearGradient>
    <linearGradient
       gradientTransform="matrix(6.4548594,0,0,6.7220041,-48.26421,-15.053436)"
       gradientUnits="userSpaceOnUse"
       id="linearGradient24380"
       inkscape:collect="always"
       x1="16.07143"
       x2="15.785715"
       xlink:href="#linearGradient6924-5"
       y1="19.5"
       y2="30" />
    <linearGradient
       id="linearGradient6924-5"
       inkscape:collect="always">
      <stop
         id="stop6926-2"
         offset="0"
         style="stop-color:#ffffff;stop-opacity:1;" />
      <stop
         id="stop6928-8"
         offset="1"
         style="stop-color:#ffffff;stop-opacity:0;" />
    </linearGradient>
  </defs>
  <g
     inkscape:label="Layer 1"
     inkscape:groupmode="layer"
     id="layer1">
    <path
       id="path3366-8"
       style="display:block;overflow:visible;visibility:visible;fill:url(#radialGradient24310);fill-opacity:1;fill-rule:nonzero;stroke:none;stroke-width:0.264583;marker:none"
       cx="387.92657"
       cy="612.638"
       rx="191.87225"
       ry="104.31838"
       d="" />
    <path
       d="m 107.17092,27.049104 c -50.731304,0 -91.981605,18.838422 -91.981605,42.012525 0,1.662963 0,153.714461 0,155.446321 0,23.1741 41.250301,42.0125 91.981605,42.0125 50.73129,0 93.62449,-18.8384 93.62449,-42.0125 0,-1.37171 0,-154.074634 0,-155.446321 0,-23.174103 -42.8932,-42.012525 -93.62449,-42.012525 z"
       id="path3068-5"
       sodipodi:nodetypes="csszssz"
       style="display:block;overflow:visible;visibility:visible;fill:url(#linearGradient24387);fill-opacity:1;fill-rule:nonzero;stroke:url(#linearGradient24389);stroke-width:6.5871;stroke-linecap:butt;stroke-linejoin:miter;stroke-miterlimit:10;stroke-dasharray:none;stroke-dashoffset:0;stroke-opacity:1;marker:none" />
    <path
       d="m 107.22644,32.287692 c -47.299276,0 -85.75918,17.564043 -85.75918,39.17052 0,1.550443 0,147.118168 0,148.732848 0,21.60641 38.459904,39.17047 85.75918,39.17047 47.2999,0 87.29097,-17.56406 87.29097,-39.17047 0,-1.27892 0,-147.453974 0,-148.732848 0,-21.606477 -39.99107,-39.17052 -87.29097,-39.17052 z"
       id="path4174-0"
       sodipodi:nodetypes="csszssz"
       style="display:block;overflow:visible;visibility:visible;opacity:0.544304;fill:none;stroke:url(#linearGradient24384);stroke-width:6.5871;stroke-linecap:butt;stroke-linejoin:miter;stroke-miterlimit:10;stroke-dasharray:none;stroke-dashoffset:0;stroke-opacity:1;marker:none" />
    <path
       id="path3364-7"
       style="display:block;overflow:visible;visibility:visible;fill:#3465a4;fill-opacity:1;fill-rule:nonzero;stroke:url(#linearGradient24321);stroke-width:0.265888;stroke-linecap:butt;stroke-linejoin:miter;stroke-miterlimit:10;stroke-dasharray:none;stroke-dashoffset:0;stroke-opacity:1;marker:none"
       cx="386.4166"
       cy="375.66501"
       rx="140.98723"
       ry="55.504398"
       d="" />
    <path
       d="m 40.72074,99.700704 2.305008,112.833676 29.50776,8.64255 -0.921752,-112.35346 c 0,0 13.370591,0 35.040844,-1.44044 -33.667259,-1.56671 -72.187213,-16.634823 -85.296643,-26.407866 9.146162,14.06364 19.364783,18.72554 19.364783,18.72554 z"
       id="path6922-9"
       sodipodi:nodetypes="ccccccc"
       style="display:block;overflow:visible;visibility:visible;opacity:0.493671;fill:url(#linearGradient24380);fill-opacity:1;fill-rule:nonzero;stroke:none;stroke-width:0.311551;marker:none" />
    <path
       d="m 33.133236,205.17965 h 4.912309 v -20.26572 l 7.670675,17.66841 c 0.869377,2.1248 2.11628,2.91206 4.534484,2.91206 2.418457,0 3.589781,-0.78702 4.496751,-2.91182 l 7.633036,-17.66865 v 20.26572 h 4.949986 v -20.26572 c 0,-1.96756 -0.755737,-2.91206 -2.342835,-3.4236 -3.740766,-1.1805 -6.234871,-0.15717 -7.368463,2.47907 L 50.099684,201.44103 42.84452,183.9694 c -1.095883,-2.63631 -3.627721,-3.65957 -7.406369,-2.47907 -1.549218,0.51151 -2.304915,1.45604 -2.304915,3.4236 z"
       id="path12-0"
       style="fill:#204a87;fill-opacity:1;stroke-width:0.311551" />
    <path
       d="m 71.41166,188.69157 h 4.949994 v 11.13627 c -0.03766,0.62951 0.188936,2.04655 2.871724,2.0858 1.398167,0.0392 10.656014,0 10.731616,0 v -13.3008 h 4.950249 c 0,0 0,18.14092 0,18.21968 0,4.48586 -5.328121,5.46988 -7.821972,5.50912 h -15.56831 v -3.42359 c 0.03766,0 15.56831,0 15.606002,0 3.174194,-0.354 2.796322,-2.00678 2.796322,-2.55782 v -1.33802 H 79.460232 c -4.874616,-0.0392 -8.010894,-2.28231 -8.048598,-4.84013 0,-0.23624 0.113311,-11.41175 0,-11.49053 z"
       id="path14-5"
       style="fill:#204a87;fill-opacity:1;stroke-width:0.311551" />
    <path
       d="m 177.59359,175.78421 c -3.02297,-0.0786 -5.36581,0.23649 -7.33079,1.10204 -0.56681,0.23601 -1.4738,0.23625 -1.54943,0.98376 0.3025,0.31502 0.34019,0.82653 0.60475,1.25928 0.45373,0.78676 1.24693,1.84956 1.96496,2.40055 0.79345,0.62951 1.58711,1.25902 2.41825,1.81005 1.47378,0.94453 3.13652,1.49528 4.57235,2.43981 0.83163,0.5505 1.66251,1.25927 2.49388,1.84953 0.41579,0.31452 0.68012,0.82627 1.20922,1.02302 0,-0.0394 0,-0.0786 0,-0.118 -0.26454,-0.35424 -0.34017,-0.86577 -0.6045,-1.25928 -0.37761,-0.39351 -0.75572,-0.74776 -1.13361,-1.14127 -1.09591,-1.53453 -2.45614,-2.87255 -3.92992,-3.97435 -1.20899,-0.86575 -3.85432,-2.04628 -4.34553,-3.50232 2.3e-4,0 -0.0378,-0.0392 -0.0757,-0.0786 0.83137,-0.0788 1.81373,-0.39348 2.60741,-0.62975 1.28485,-0.35427 2.45617,-0.27551 3.7787,-0.62951 0.60449,-0.15741 1.20924,-0.35427 1.81373,-0.55102 0,-0.11824 0,-0.236 0,-0.354 -0.67989,-0.70853 -1.1713,-1.6528 -1.88936,-2.32182 -1.92704,-1.73179 -4.04327,-3.42357 -6.23488,-4.8401 -1.17153,-0.78702 -2.68302,-1.2988 -3.92992,-1.96756 -0.45324,-0.23648 -1.20924,-0.35426 -1.47355,-0.74777 -0.68037,-0.86578 -1.05824,-2.0068 -1.54942,-3.03009 -1.09545,-2.16452 -2.1539,-4.56459 -3.09858,-6.8469 -0.67986,-1.53479 -1.09568,-3.06959 -1.92704,-4.4861 -3.89199,-6.68963 -8.12422,-10.74276 -14.62362,-14.71733 -1.39818,-0.82629 -3.06066,-1.18053 -4.83671,-1.61331 -0.94442,-0.0394 -1.88933,-0.118 -2.83401,-0.15741 -0.6045,-0.27551 -1.20924,-1.02305 -1.73836,-1.37729 -2.15342,-1.41679 -7.70841,-4.48586 -9.29552,-0.43275 -1.02028,2.55779 1.51148,5.0761 2.38054,6.3749 0.64266,0.90499 1.47378,1.92802 1.92727,2.95133 0.26456,0.66849 0.33996,1.37726 0.6045,2.08552 0.60474,1.73105 1.17132,3.6596 1.96498,5.27313 0.41579,0.82629 0.86905,1.69204 1.39818,2.43955 0.30222,0.43276 0.83111,0.62978 0.94465,1.33804 -0.52887,0.78702 -0.56681,1.96755 -0.86928,2.95133 -1.36024,4.44659 -0.83112,9.95574 1.0959,13.2218 0.60452,0.98354 2.04059,3.14833 3.96766,2.32182 1.70042,-0.70829 1.32255,-2.95133 1.81373,-4.91888 0.11354,-0.47251 0.0378,-0.78702 0.26456,-1.10178 2.3e-4,0.0392 0,0.0788 0,0.0788 0.5291,1.10177 1.05799,2.16431 1.54917,3.26606 1.17153,1.92804 3.21191,3.9351 4.91231,5.27315 0.90723,0.708 1.62503,1.92804 2.75864,2.36103 0,-0.0399 0,-0.0788 0,-0.11824 -0.0378,0 -0.0378,0 -0.0757,0 -0.22685,-0.35426 -0.56681,-0.51151 -0.86905,-0.78702 -0.68012,-0.70826 -1.4361,-1.57404 -1.96499,-2.36104 -1.58686,-2.20381 -2.98526,-4.64337 -4.23216,-7.16192 -0.6045,-1.21977 -1.13362,-2.55782 -1.62483,-3.77759 -0.22685,-0.47251 -0.22685,-1.18053 -0.60472,-1.41653 -0.56681,0.86551 -1.39792,1.61328 -1.81373,2.67581 -0.71758,1.69205 -0.79343,3.7776 -1.05799,5.94188 -0.15093,0.0394 -0.0757,0 -0.15116,0.0788 -1.20899,-0.31502 -1.6248,-1.61331 -2.0783,-2.71533 -1.13359,-2.79379 -1.32255,-7.27992 -0.33993,-10.50649 0.26456,-0.82651 1.39818,-3.42357 0.94466,-4.21059 -0.22662,-0.74778 -0.9826,-1.18054 -1.39815,-1.7708 -0.49119,-0.74775 -1.02031,-1.69204 -1.36024,-2.51855 -0.90697,-2.20355 -1.36049,-4.64337 -2.34283,-6.84717 -0.4535,-1.02326 -1.24693,-2.08555 -1.88936,-3.02982 -0.71781,-1.06253 -1.51149,-1.8103 -2.0783,-3.06959 -0.18877,-0.43276 -0.45349,-1.14102 -0.15115,-1.61329 0.0757,-0.31475 0.22662,-0.43275 0.5291,-0.51151 0.4912,-0.43299 1.88935,0.118 2.38054,0.35403 1.39817,0.59 2.56947,1.14126 3.741,1.96755 0.52887,0.39349 1.09568,1.14126 1.7758,1.33802 0.26456,0 0.52912,0 0.79368,0 1.20924,0.27527 2.56948,0.0788 3.70309,0.43275 2.00288,0.66876 3.81638,1.6528 5.44143,2.71533 4.95025,3.26606 9.03094,7.90967 11.78961,13.45807 0.45349,0.90478 0.6422,1.73152 1.05799,2.67582 0.79368,1.92828 1.77604,3.89583 2.56947,5.78463 0.79343,1.84929 1.54917,3.73835 2.68279,5.27312 0.56704,0.82603 2.83401,1.25905 3.85432,1.69204 0.75572,0.35403 1.92727,0.66902 2.60739,1.10178 1.28461,0.82603 2.56948,1.7708 3.7787,2.67582 0.60474,0.472 2.49385,1.45604 2.60741,2.2428 v 0 z"
       id="path16-3"
       style="fill:#204a87;fill-opacity:1;stroke-width:0.311551" />
    <path
       d="m 139.05038,141.58816 c -0.64241,0 -1.09568,0.0791 -1.54915,0.19707 0,-2.4e-4 0,0.0394 0,0.0788 0.0378,0 0.0376,0 0.0757,0 0.30248,0.62951 0.83112,1.06253 1.20899,1.61329 0.30247,0.62951 0.5668,1.25928 0.86928,1.88903 0.0376,-0.0394 0.0755,-0.0788 0.0755,-0.0788 0.52937,-0.39375 0.79368,-1.02329 0.79368,-1.96756 -0.22685,-0.27551 -0.26456,-0.55099 -0.4535,-0.8265 -0.22662,-0.39375 -0.71803,-0.59027 -1.0203,-0.90526 v 0 z"
       id="path18-4"
       style="fill:#00546b;stroke-width:0.311551" />
    <path
       d="M 98.693937,205.17965 H 112.902 c 1.66248,0 3.24959,-0.354 4.53418,-0.98378 2.15417,-1.02302 3.17422,-2.40031 3.17422,-4.21059 v -3.77786 c 0,-1.45578 -1.17155,-2.83306 -3.51415,-3.7776 -1.20899,-0.472 -2.72071,-0.74751 -4.19451,-0.74751 h -5.97004 c -2.0029,0 -2.94758,-0.62977 -3.21214,-2.00703 -0.0379,-0.15718 -0.0379,-0.31478 -0.0379,-0.47203 v -2.32182 c 0,-0.118 0,-0.27548 0.0379,-0.43275 0.26456,-1.06251 0.79343,-1.33802 2.53179,-1.53478 0.15092,0 0.33993,0 0.45324,0 h 14.095 v -3.42359 h -13.83044 c -2.00267,0 -3.06066,0.118 -4.00534,0.43302 -2.90966,0.94403 -4.194502,2.43955 -4.194502,5.0761 v 2.99084 c 0,2.32153 2.494102,4.28908 6.726272,4.76135 0.45352,0.0392 0.94468,0.0392 1.43586,0.0392 h 5.10127 c 0.18901,0 0.37787,0 0.52912,0.0394 1.54915,0.15717 2.22927,0.43275 2.68277,1.02302 0.30224,0.31451 0.37787,0.59026 0.37787,0.9445 l 2.5e-4,2.99034 c 0,0.35426 -0.22685,0.82677 -0.68037,1.22028 -0.45327,0.39351 -1.17153,0.66902 -2.11623,0.70827 -0.18878,0 -0.30225,0.0392 -0.49119,0.0392 l -13.641016,-2.4e-4 v 3.42383 l 2.3e-5,3e-5 z"
       id="path20-1"
       style="fill:#f57900;fill-opacity:1;stroke-width:0.311551" />
    <path
       d="m 151.36921,199.23777 c 0,3.50182 2.5318,5.46961 7.59508,5.86312 0.49118,0.0394 0.94468,0.0788 1.43586,0.0788 h 12.84808 v -3.42383 h -12.96116 c -2.87172,0 -3.96786,-0.74728 -3.96786,-2.55758 l 2.3e-4,-17.7079 h -4.95025 v 17.74743 h 2e-5 z"
       id="path22-0"
       style="fill:#f57900;fill-opacity:1;stroke-width:0.311551" />
    <path
       d="m 123.74664,199.39494 v -12.19875 c 0,-3.10858 2.11598,-4.99762 6.23486,-5.58788 0.45373,-0.0394 0.90699,-0.0784 1.32255,-0.0784 l 9.37112,-2.6e-4 c 0.49167,0 0.907,0.0394 1.39818,0.0786 4.11888,0.59 6.19717,2.4793 6.19717,5.58787 l 2.6e-4,12.19876 c 0,2.51833 -0.86931,3.85661 -2.90992,4.76161 l 4.83694,4.56462 h -5.70574 l -3.92992,-3.69908 -3.96765,0.236 h -5.29044 c -0.86882,0 -1.85165,-0.11776 -2.8717,-0.39325 -3.13654,-0.90502 -4.68569,-2.63657 -4.68569,-5.46988 l -2e-5,-2e-5 z m 5.32787,-0.27548 c 0,0.15717 0.0755,0.31502 0.11354,0.51177 0.26431,1.41651 1.54917,2.20355 3.51413,2.20355 h 4.45884 l -4.08097,-3.85661 h 5.706 l 3.58952,3.38435 c 0.68061,-0.39375 1.09591,-0.94427 1.24716,-1.65256 0.0376,-0.15741 0.0376,-0.35424 0.0376,-0.51175 v -11.68727 c 0,-0.15717 0,-0.31475 -0.0376,-0.472 -0.26454,-1.33804 -1.5494,-2.08582 -3.47645,-2.08582 h -7.4441 c -2.1916,0 -3.6277,0.98378 -3.6277,2.55782 v 11.60854 z"
       id="path24-4"
       style="fill:#f57900;fill-opacity:1;stroke-width:0.311551" />
    <path
       d="m 175.51518,205.21877 h 0.71806 v -2.87255 h 0.94468 v -0.5905 h -2.64534 v 0.5905 h 0.9826 z m 5.47937,0 h 0.67989 v -3.46308 h -1.02005 l -0.83163,2.36107 -0.9065,-2.36107 h -0.9826 v 3.46308 h 0.64243 v -2.63655 h 0.0376 l 0.94466,2.63655 h 0.49143 l 0.94468,-2.63655 v 2.63655 0 z"
       id="path26-8"
       style="fill:#f57900;fill-opacity:1;stroke-width:0.311551" />
    <rect
       height="270.24207"
       id="rect2300"
       style="fill:none;stroke:none;stroke-width:0.311551"
       width="259.50214"
       x="-21.525763"
       y="18.95546" />
  </g>
</svg>
