<svg width="70" height="53" viewBox="0 0 70 53" fill="none" xmlns="http://www.w3.org/2000/svg">
<circle cx="8.06121" cy="44.154" r="6.56121" stroke="#525252" stroke-width="3"/>
<circle cx="61.9388" cy="8.06121" r="6.56121" stroke="#525252" stroke-width="3"/>
<line x1="44.673" y1="44.0728" x2="13.2881" y2="44.0728" stroke="#525252" stroke-width="3.5"/>
<line x1="25.108" y1="7.61932" x2="56.493" y2="7.61932" stroke="#525252" stroke-width="3.5"/>
<path d="M43.5072 7.88206H23.5189C21.3098 7.88206 19.5189 9.67292 19.5189 11.8821V35.7787C19.5189 36.7861 19.899 37.7564 20.5833 38.4957L24.553 42.785C25.3101 43.6029 26.3741 44.068 27.4887 44.068H46.3306C48.5398 44.068 50.3306 42.2771 50.3306 40.068V16.4549C50.3306 15.7126 50.1241 14.985 49.7342 14.3534L46.9107 9.78061C46.1821 8.60051 44.8942 7.88206 43.5072 7.88206Z" stroke="#525252" stroke-width="4"/>
<line x1="24.893" y1="17.6304" x2="44.9565" y2="17.6304" stroke="#525252" stroke-width="2"/>
<line x1="24.893" y1="23.3628" x2="44.9565" y2="23.3628" stroke="#525252" stroke-width="2"/>
<line x1="24.893" y1="20.4966" x2="44.9565" y2="20.4966" stroke="#525252" stroke-width="2"/>
<line x1="24.893" y1="26.229" x2="44.9565" y2="26.229" stroke="#525252" stroke-width="2"/>
<line x1="24.893" y1="31.9614" x2="44.9565" y2="31.9614" stroke="#525252" stroke-width="2"/>
<line x1="24.893" y1="29.0952" x2="44.9565" y2="29.0952" stroke="#525252" stroke-width="2"/>
</svg>
